<?xml version="1.0" encoding="UTF-8"?>
<svg id="grid_mats" xmlns="http://www.w3.org/2000/svg" viewBox="0 0 595.28 595.28">
  <defs>
    <style>
      .cls-1 {
        opacity: .8;
      }
    </style>
  </defs>
  <g>
    <g class="cls-1">
      <rect x="-.2" width=".4" height="595.28"/>
      <rect x="31.13" width=".4" height="595.28"/>
      <rect x="62.46" width=".4" height="595.28"/>
      <rect x="93.79" width=".4" height="595.28"/>
      <rect x="125.12" width=".4" height="595.28"/>
      <rect x="156.45" width=".4" height="595.28"/>
      <rect x="187.78" width=".4" height="595.28"/>
      <rect x="219.11" width=".4" height="595.28"/>
      <rect x="250.44" width=".4" height="595.28"/>
      <rect x="281.77" width=".4" height="595.28"/>
      <rect x="313.1" width=".4" height="595.28"/>
      <rect x="344.43" width=".4" height="595.28"/>
      <rect x="375.76" width=".4" height="595.28"/>
      <rect x="407.09" width=".4" height="595.28"/>
      <rect x="438.42" width=".4" height="595.28"/>
      <rect x="469.75" width=".4" height="595.28"/>
      <rect x="501.08" width=".4" height="595.28"/>
      <rect x="532.42" width=".4" height="595.28"/>
      <rect x="563.75" width=".4" height="595.28"/>
    </g>
    <g class="cls-1">
      <rect x="0" y="-.2" width="595.28" height=".4"/>
      <rect x="0" y="31.13" width="595.28" height=".4"/>
      <rect x="0" y="62.46" width="595.28" height=".4"/>
      <rect x="0" y="93.79" width="595.28" height=".4"/>
      <rect x="0" y="125.12" width="595.28" height=".4"/>
      <rect x="0" y="156.45" width="595.28" height=".4"/>
      <rect x="0" y="187.78" width="595.28" height=".4"/>
      <rect x="0" y="219.11" width="595.28" height=".4"/>
      <rect x="0" y="250.44" width="595.28" height=".4"/>
      <rect x="0" y="281.77" width="595.28" height=".4"/>
      <rect x="0" y="313.1" width="595.28" height=".4"/>
      <rect x="0" y="344.43" width="595.28" height=".4"/>
      <rect x="0" y="375.76" width="595.28" height=".4"/>
      <rect x="0" y="407.09" width="595.28" height=".4"/>
      <rect x="0" y="438.42" width="595.28" height=".4"/>
      <rect x="0" y="469.75" width="595.28" height=".4"/>
      <rect x="0" y="501.08" width="595.28" height=".4"/>
      <rect x="0" y="532.42" width="595.28" height=".4"/>
      <rect x="0" y="563.75" width="595.28" height=".4"/>
    </g>
  </g>
  <g>
    <g>
      <circle cx="31.33" cy="31.33" r="1.57"/>
      <circle cx="62.66" cy="31.33" r="1.57"/>
      <path d="m95.56,31.33c0,.87-.7,1.57-1.57,1.57s-1.57-.7-1.57-1.57.7-1.57,1.57-1.57,1.57.7,1.57,1.57Z"/>
      <path d="m126.89,31.33c0,.87-.7,1.57-1.57,1.57s-1.57-.7-1.57-1.57.7-1.57,1.57-1.57,1.57.7,1.57,1.57Z"/>
      <path d="m158.22,31.33c0,.87-.7,1.57-1.57,1.57s-1.57-.7-1.57-1.57.7-1.57,1.57-1.57,1.57.7,1.57,1.57Z"/>
      <path d="m189.55,31.33c0,.87-.7,1.57-1.57,1.57s-1.57-.7-1.57-1.57.7-1.57,1.57-1.57,1.57.7,1.57,1.57Z"/>
      <path d="m220.88,31.33c0,.87-.7,1.57-1.57,1.57s-1.57-.7-1.57-1.57.7-1.57,1.57-1.57,1.57.7,1.57,1.57Z"/>
      <circle cx="250.64" cy="31.33" r="1.57"/>
      <circle cx="281.97" cy="31.33" r="1.57"/>
      <circle cx="313.3" cy="31.33" r="1.57"/>
      <circle cx="344.63" cy="31.33" r="1.57"/>
      <circle cx="375.96" cy="31.33" r="1.57"/>
      <circle cx="407.29" cy="31.33" r="1.57"/>
      <circle cx="438.62" cy="31.33" r="1.57"/>
      <circle cx="469.95" cy="31.33" r="1.57"/>
      <circle cx="501.28" cy="31.33" r="1.57"/>
      <circle cx="532.62" cy="31.33" r="1.57"/>
      <circle cx="563.95" cy="31.33" r="1.57"/>
    </g>
    <g>
      <circle cx="31.33" cy="62.66" r="1.57"/>
      <circle cx="62.66" cy="62.66" r="1.57"/>
      <path d="m95.56,62.66c0,.87-.7,1.57-1.57,1.57s-1.57-.7-1.57-1.57.7-1.57,1.57-1.57,1.57.7,1.57,1.57Z"/>
      <path d="m126.89,62.66c0,.87-.7,1.57-1.57,1.57s-1.57-.7-1.57-1.57.7-1.57,1.57-1.57,1.57.7,1.57,1.57Z"/>
      <path d="m158.22,62.66c0,.87-.7,1.57-1.57,1.57s-1.57-.7-1.57-1.57.7-1.57,1.57-1.57,1.57.7,1.57,1.57Z"/>
      <path d="m189.55,62.66c0,.87-.7,1.57-1.57,1.57s-1.57-.7-1.57-1.57.7-1.57,1.57-1.57,1.57.7,1.57,1.57Z"/>
      <path d="m220.88,62.66c0,.87-.7,1.57-1.57,1.57s-1.57-.7-1.57-1.57.7-1.57,1.57-1.57,1.57.7,1.57,1.57Z"/>
      <circle cx="250.64" cy="62.66" r="1.57"/>
      <circle cx="281.97" cy="62.66" r="1.57"/>
      <circle cx="313.3" cy="62.66" r="1.57"/>
      <circle cx="344.63" cy="62.66" r="1.57"/>
      <circle cx="375.96" cy="62.66" r="1.57"/>
      <circle cx="407.29" cy="62.66" r="1.57"/>
      <circle cx="438.62" cy="62.66" r="1.57"/>
      <circle cx="469.95" cy="62.66" r="1.57"/>
      <circle cx="501.28" cy="62.66" r="1.57"/>
      <circle cx="532.62" cy="62.66" r="1.57"/>
      <circle cx="563.95" cy="62.66" r="1.57"/>
    </g>
    <g>
      <circle cx="31.33" cy="93.99" r="1.57"/>
      <circle cx="62.66" cy="93.99" r="1.57"/>
      <path d="m95.56,93.99c0,.87-.7,1.57-1.57,1.57s-1.57-.7-1.57-1.57.7-1.57,1.57-1.57,1.57.7,1.57,1.57Z"/>
      <path d="m126.89,93.99c0,.87-.7,1.57-1.57,1.57s-1.57-.7-1.57-1.57.7-1.57,1.57-1.57,1.57.7,1.57,1.57Z"/>
      <path d="m158.22,93.99c0,.87-.7,1.57-1.57,1.57s-1.57-.7-1.57-1.57.7-1.57,1.57-1.57,1.57.7,1.57,1.57Z"/>
      <path d="m189.55,93.99c0,.87-.7,1.57-1.57,1.57s-1.57-.7-1.57-1.57.7-1.57,1.57-1.57,1.57.7,1.57,1.57Z"/>
      <path d="m220.88,93.99c0,.87-.7,1.57-1.57,1.57s-1.57-.7-1.57-1.57.7-1.57,1.57-1.57,1.57.7,1.57,1.57Z"/>
      <circle cx="250.64" cy="93.99" r="1.57"/>
      <circle cx="281.97" cy="93.99" r="1.57"/>
      <circle cx="313.3" cy="93.99" r="1.57"/>
      <circle cx="344.63" cy="93.99" r="1.57"/>
      <circle cx="375.96" cy="93.99" r="1.57"/>
      <circle cx="407.29" cy="93.99" r="1.57"/>
      <circle cx="438.62" cy="93.99" r="1.57"/>
      <circle cx="469.95" cy="93.99" r="1.57"/>
      <circle cx="501.28" cy="93.99" r="1.57"/>
      <circle cx="532.62" cy="93.99" r="1.57"/>
      <circle cx="563.95" cy="93.99" r="1.57"/>
    </g>
    <g>
      <circle cx="31.33" cy="125.32" r="1.57"/>
      <circle cx="62.66" cy="125.32" r="1.57"/>
      <path d="m95.56,125.32c0,.87-.7,1.57-1.57,1.57s-1.57-.7-1.57-1.57.7-1.57,1.57-1.57,1.57.7,1.57,1.57Z"/>
      <path d="m126.89,125.32c0,.87-.7,1.57-1.57,1.57s-1.57-.7-1.57-1.57.7-1.57,1.57-1.57,1.57.7,1.57,1.57Z"/>
      <path d="m158.22,125.32c0,.87-.7,1.57-1.57,1.57s-1.57-.7-1.57-1.57.7-1.57,1.57-1.57,1.57.7,1.57,1.57Z"/>
      <path d="m189.55,125.32c0,.87-.7,1.57-1.57,1.57s-1.57-.7-1.57-1.57.7-1.57,1.57-1.57,1.57.7,1.57,1.57Z"/>
      <path d="m220.88,125.32c0,.87-.7,1.57-1.57,1.57s-1.57-.7-1.57-1.57.7-1.57,1.57-1.57,1.57.7,1.57,1.57Z"/>
      <circle cx="250.64" cy="125.32" r="1.57"/>
      <circle cx="281.97" cy="125.32" r="1.57"/>
      <circle cx="313.3" cy="125.32" r="1.57"/>
      <circle cx="344.63" cy="125.32" r="1.57"/>
      <circle cx="375.96" cy="125.32" r="1.57"/>
      <circle cx="407.29" cy="125.32" r="1.57"/>
      <circle cx="438.62" cy="125.32" r="1.57"/>
      <circle cx="469.95" cy="125.32" r="1.57"/>
      <circle cx="501.28" cy="125.32" r="1.57"/>
      <circle cx="532.62" cy="125.32" r="1.57"/>
      <circle cx="563.95" cy="125.32" r="1.57"/>
    </g>
    <g>
      <circle cx="31.33" cy="156.65" r="1.57"/>
      <circle cx="62.66" cy="156.65" r="1.57"/>
      <path d="m95.56,156.65c0,.87-.7,1.57-1.57,1.57s-1.57-.7-1.57-1.57.7-1.57,1.57-1.57,1.57.7,1.57,1.57Z"/>
      <path d="m126.89,156.65c0,.87-.7,1.57-1.57,1.57s-1.57-.7-1.57-1.57.7-1.57,1.57-1.57,1.57.7,1.57,1.57Z"/>
      <path d="m158.22,156.65c0,.87-.7,1.57-1.57,1.57s-1.57-.7-1.57-1.57.7-1.57,1.57-1.57,1.57.7,1.57,1.57Z"/>
      <path d="m189.55,156.65c0,.87-.7,1.57-1.57,1.57s-1.57-.7-1.57-1.57.7-1.57,1.57-1.57,1.57.7,1.57,1.57Z"/>
      <path d="m220.88,156.65c0,.87-.7,1.57-1.57,1.57s-1.57-.7-1.57-1.57.7-1.57,1.57-1.57,1.57.7,1.57,1.57Z"/>
      <circle cx="250.64" cy="156.65" r="1.57"/>
      <circle cx="281.97" cy="156.65" r="1.57"/>
      <circle cx="313.3" cy="156.65" r="1.57"/>
      <circle cx="344.63" cy="156.65" r="1.57"/>
      <circle cx="375.96" cy="156.65" r="1.57"/>
      <circle cx="407.29" cy="156.65" r="1.57"/>
      <circle cx="438.62" cy="156.65" r="1.57"/>
      <circle cx="469.95" cy="156.65" r="1.57"/>
      <circle cx="501.28" cy="156.65" r="1.57"/>
      <circle cx="532.62" cy="156.65" r="1.57"/>
      <circle cx="563.95" cy="156.65" r="1.57"/>
    </g>
    <g>
      <circle cx="31.33" cy="187.98" r="1.57"/>
      <circle cx="62.66" cy="187.98" r="1.57"/>
      <path d="m95.56,187.98c0,.87-.7,1.57-1.57,1.57s-1.57-.7-1.57-1.57.7-1.57,1.57-1.57,1.57.7,1.57,1.57Z"/>
      <path d="m126.89,187.98c0,.87-.7,1.57-1.57,1.57s-1.57-.7-1.57-1.57.7-1.57,1.57-1.57,1.57.7,1.57,1.57Z"/>
      <path d="m158.22,187.98c0,.87-.7,1.57-1.57,1.57s-1.57-.7-1.57-1.57.7-1.57,1.57-1.57,1.57.7,1.57,1.57Z"/>
      <path d="m189.55,187.98c0,.87-.7,1.57-1.57,1.57s-1.57-.7-1.57-1.57.7-1.57,1.57-1.57,1.57.7,1.57,1.57Z"/>
      <path d="m220.88,187.98c0,.87-.7,1.57-1.57,1.57s-1.57-.7-1.57-1.57.7-1.57,1.57-1.57,1.57.7,1.57,1.57Z"/>
      <circle cx="250.64" cy="187.98" r="1.57"/>
      <circle cx="281.97" cy="187.98" r="1.57"/>
      <circle cx="313.3" cy="187.98" r="1.57"/>
      <circle cx="344.63" cy="187.98" r="1.57"/>
      <circle cx="375.96" cy="187.98" r="1.57"/>
      <circle cx="407.29" cy="187.98" r="1.57"/>
      <circle cx="438.62" cy="187.98" r="1.57"/>
      <circle cx="469.95" cy="187.98" r="1.57"/>
      <circle cx="501.28" cy="187.98" r="1.57"/>
      <circle cx="532.62" cy="187.98" r="1.57"/>
      <circle cx="563.95" cy="187.98" r="1.57"/>
    </g>
    <g>
      <path d="m32.9,219.31c0,.87-.7,1.57-1.57,1.57s-1.57-.7-1.57-1.57.7-1.57,1.57-1.57,1.57.7,1.57,1.57Z"/>
      <path d="m64.23,219.31c0,.87-.7,1.57-1.57,1.57s-1.57-.7-1.57-1.57.7-1.57,1.57-1.57,1.57.7,1.57,1.57Z"/>
      <path d="m95.56,219.31c0,.87-.7,1.57-1.57,1.57s-1.57-.7-1.57-1.57.7-1.57,1.57-1.57,1.57.7,1.57,1.57Z"/>
      <path d="m126.89,219.31c0,.87-.7,1.57-1.57,1.57s-1.57-.7-1.57-1.57.7-1.57,1.57-1.57,1.57.7,1.57,1.57Z"/>
      <path d="m158.22,219.31c0,.87-.7,1.57-1.57,1.57s-1.57-.7-1.57-1.57.7-1.57,1.57-1.57,1.57.7,1.57,1.57Z"/>
      <path d="m189.55,219.31c0,.87-.7,1.57-1.57,1.57s-1.57-.7-1.57-1.57.7-1.57,1.57-1.57,1.57.7,1.57,1.57Z"/>
      <path d="m220.88,219.31c0,.87-.7,1.57-1.57,1.57s-1.57-.7-1.57-1.57.7-1.57,1.57-1.57,1.57.7,1.57,1.57Z"/>
      <path d="m252.21,219.31c0,.87-.7,1.57-1.57,1.57s-1.57-.7-1.57-1.57.7-1.57,1.57-1.57,1.57.7,1.57,1.57Z"/>
      <path d="m283.54,219.31c0,.87-.7,1.57-1.57,1.57s-1.57-.7-1.57-1.57.7-1.57,1.57-1.57,1.57.7,1.57,1.57Z"/>
      <path d="m314.87,219.31c0,.87-.7,1.57-1.57,1.57s-1.57-.7-1.57-1.57.7-1.57,1.57-1.57,1.57.7,1.57,1.57Z"/>
      <path d="m346.2,219.31c0,.87-.7,1.57-1.57,1.57s-1.57-.7-1.57-1.57.7-1.57,1.57-1.57,1.57.7,1.57,1.57Z"/>
      <path d="m377.53,219.31c0,.87-.7,1.57-1.57,1.57s-1.57-.7-1.57-1.57.7-1.57,1.57-1.57,1.57.7,1.57,1.57Z"/>
      <path d="m408.86,219.31c0,.87-.7,1.57-1.57,1.57s-1.57-.7-1.57-1.57.7-1.57,1.57-1.57,1.57.7,1.57,1.57Z"/>
      <path d="m440.19,219.31c0,.87-.7,1.57-1.57,1.57s-1.57-.7-1.57-1.57.7-1.57,1.57-1.57,1.57.7,1.57,1.57Z"/>
      <path d="m471.52,219.31c0,.87-.7,1.57-1.57,1.57s-1.57-.7-1.57-1.57.7-1.57,1.57-1.57,1.57.7,1.57,1.57Z"/>
      <path d="m502.85,219.31c0,.87-.7,1.57-1.57,1.57s-1.57-.7-1.57-1.57.7-1.57,1.57-1.57,1.57.7,1.57,1.57Z"/>
      <path d="m534.18,219.31c0,.87-.7,1.57-1.57,1.57s-1.57-.7-1.57-1.57.7-1.57,1.57-1.57,1.57.7,1.57,1.57Z"/>
      <path d="m565.51,219.31c0,.87-.7,1.57-1.57,1.57s-1.57-.7-1.57-1.57.7-1.57,1.57-1.57,1.57.7,1.57,1.57Z"/>
    </g>
    <g>
      <path d="m32.9,250.64c0,.87-.7,1.57-1.57,1.57s-1.57-.7-1.57-1.57.7-1.57,1.57-1.57,1.57.7,1.57,1.57Z"/>
      <path d="m64.23,250.64c0,.87-.7,1.57-1.57,1.57s-1.57-.7-1.57-1.57.7-1.57,1.57-1.57,1.57.7,1.57,1.57Z"/>
      <path d="m95.56,250.64c0,.87-.7,1.57-1.57,1.57s-1.57-.7-1.57-1.57.7-1.57,1.57-1.57,1.57.7,1.57,1.57Z"/>
      <path d="m126.89,250.64c0,.87-.7,1.57-1.57,1.57s-1.57-.7-1.57-1.57.7-1.57,1.57-1.57,1.57.7,1.57,1.57Z"/>
      <path d="m158.22,250.64c0,.87-.7,1.57-1.57,1.57s-1.57-.7-1.57-1.57.7-1.57,1.57-1.57,1.57.7,1.57,1.57Z"/>
      <path d="m189.55,250.64c0,.87-.7,1.57-1.57,1.57s-1.57-.7-1.57-1.57.7-1.57,1.57-1.57,1.57.7,1.57,1.57Z"/>
      <path d="m220.88,250.64c0,.87-.7,1.57-1.57,1.57s-1.57-.7-1.57-1.57.7-1.57,1.57-1.57,1.57.7,1.57,1.57Z"/>
      <path d="m252.21,250.64c0,.87-.7,1.57-1.57,1.57s-1.57-.7-1.57-1.57.7-1.57,1.57-1.57,1.57.7,1.57,1.57Z"/>
      <path d="m283.54,250.64c0,.87-.7,1.57-1.57,1.57s-1.57-.7-1.57-1.57.7-1.57,1.57-1.57,1.57.7,1.57,1.57Z"/>
      <path d="m314.87,250.64c0,.87-.7,1.57-1.57,1.57s-1.57-.7-1.57-1.57.7-1.57,1.57-1.57,1.57.7,1.57,1.57Z"/>
      <path d="m346.2,250.64c0,.87-.7,1.57-1.57,1.57s-1.57-.7-1.57-1.57.7-1.57,1.57-1.57,1.57.7,1.57,1.57Z"/>
      <path d="m377.53,250.64c0,.87-.7,1.57-1.57,1.57s-1.57-.7-1.57-1.57.7-1.57,1.57-1.57,1.57.7,1.57,1.57Z"/>
      <path d="m408.86,250.64c0,.87-.7,1.57-1.57,1.57s-1.57-.7-1.57-1.57.7-1.57,1.57-1.57,1.57.7,1.57,1.57Z"/>
      <path d="m440.19,250.64c0,.87-.7,1.57-1.57,1.57s-1.57-.7-1.57-1.57.7-1.57,1.57-1.57,1.57.7,1.57,1.57Z"/>
      <path d="m471.52,250.64c0,.87-.7,1.57-1.57,1.57s-1.57-.7-1.57-1.57.7-1.57,1.57-1.57,1.57.7,1.57,1.57Z"/>
      <path d="m502.85,250.64c0,.87-.7,1.57-1.57,1.57s-1.57-.7-1.57-1.57.7-1.57,1.57-1.57,1.57.7,1.57,1.57Z"/>
      <path d="m534.18,250.64c0,.87-.7,1.57-1.57,1.57s-1.57-.7-1.57-1.57.7-1.57,1.57-1.57,1.57.7,1.57,1.57Z"/>
      <path d="m565.51,250.64c0,.87-.7,1.57-1.57,1.57s-1.57-.7-1.57-1.57.7-1.57,1.57-1.57,1.57.7,1.57,1.57Z"/>
    </g>
    <g>
      <path d="m32.9,281.97c0,.87-.7,1.57-1.57,1.57s-1.57-.7-1.57-1.57.7-1.57,1.57-1.57,1.57.7,1.57,1.57Z"/>
      <path d="m64.23,281.97c0,.87-.7,1.57-1.57,1.57s-1.57-.7-1.57-1.57.7-1.57,1.57-1.57,1.57.7,1.57,1.57Z"/>
      <path d="m95.56,281.97c0,.87-.7,1.57-1.57,1.57s-1.57-.7-1.57-1.57.7-1.57,1.57-1.57,1.57.7,1.57,1.57Z"/>
      <path d="m126.89,281.97c0,.87-.7,1.57-1.57,1.57s-1.57-.7-1.57-1.57.7-1.57,1.57-1.57,1.57.7,1.57,1.57Z"/>
      <path d="m158.22,281.97c0,.87-.7,1.57-1.57,1.57s-1.57-.7-1.57-1.57.7-1.57,1.57-1.57,1.57.7,1.57,1.57Z"/>
      <path d="m189.55,281.97c0,.87-.7,1.57-1.57,1.57s-1.57-.7-1.57-1.57.7-1.57,1.57-1.57,1.57.7,1.57,1.57Z"/>
      <path d="m220.88,281.97c0,.87-.7,1.57-1.57,1.57s-1.57-.7-1.57-1.57.7-1.57,1.57-1.57,1.57.7,1.57,1.57Z"/>
      <path d="m252.21,281.97c0,.87-.7,1.57-1.57,1.57s-1.57-.7-1.57-1.57.7-1.57,1.57-1.57,1.57.7,1.57,1.57Z"/>
      <path d="m283.54,281.97c0,.87-.7,1.57-1.57,1.57s-1.57-.7-1.57-1.57.7-1.57,1.57-1.57,1.57.7,1.57,1.57Z"/>
      <path d="m314.87,281.97c0,.87-.7,1.57-1.57,1.57s-1.57-.7-1.57-1.57.7-1.57,1.57-1.57,1.57.7,1.57,1.57Z"/>
      <path d="m346.2,281.97c0,.87-.7,1.57-1.57,1.57s-1.57-.7-1.57-1.57.7-1.57,1.57-1.57,1.57.7,1.57,1.57Z"/>
      <path d="m377.53,281.97c0,.87-.7,1.57-1.57,1.57s-1.57-.7-1.57-1.57.7-1.57,1.57-1.57,1.57.7,1.57,1.57Z"/>
      <path d="m408.86,281.97c0,.87-.7,1.57-1.57,1.57s-1.57-.7-1.57-1.57.7-1.57,1.57-1.57,1.57.7,1.57,1.57Z"/>
      <path d="m440.19,281.97c0,.87-.7,1.57-1.57,1.57s-1.57-.7-1.57-1.57.7-1.57,1.57-1.57,1.57.7,1.57,1.57Z"/>
      <path d="m471.52,281.97c0,.87-.7,1.57-1.57,1.57s-1.57-.7-1.57-1.57.7-1.57,1.57-1.57,1.57.7,1.57,1.57Z"/>
      <path d="m502.85,281.97c0,.87-.7,1.57-1.57,1.57s-1.57-.7-1.57-1.57.7-1.57,1.57-1.57,1.57.7,1.57,1.57Z"/>
      <path d="m534.18,281.97c0,.87-.7,1.57-1.57,1.57s-1.57-.7-1.57-1.57.7-1.57,1.57-1.57,1.57.7,1.57,1.57Z"/>
      <path d="m565.51,281.97c0,.87-.7,1.57-1.57,1.57s-1.57-.7-1.57-1.57.7-1.57,1.57-1.57,1.57.7,1.57,1.57Z"/>
    </g>
    <g>
      <path d="m32.9,313.3c0,.87-.7,1.57-1.57,1.57s-1.57-.7-1.57-1.57.7-1.57,1.57-1.57,1.57.7,1.57,1.57Z"/>
      <path d="m64.23,313.3c0,.87-.7,1.57-1.57,1.57s-1.57-.7-1.57-1.57.7-1.57,1.57-1.57,1.57.7,1.57,1.57Z"/>
      <path d="m95.56,313.3c0,.87-.7,1.57-1.57,1.57s-1.57-.7-1.57-1.57.7-1.57,1.57-1.57,1.57.7,1.57,1.57Z"/>
      <path d="m126.89,313.3c0,.87-.7,1.57-1.57,1.57s-1.57-.7-1.57-1.57.7-1.57,1.57-1.57,1.57.7,1.57,1.57Z"/>
      <path d="m158.22,313.3c0,.87-.7,1.57-1.57,1.57s-1.57-.7-1.57-1.57.7-1.57,1.57-1.57,1.57.7,1.57,1.57Z"/>
      <path d="m189.55,313.3c0,.87-.7,1.57-1.57,1.57s-1.57-.7-1.57-1.57.7-1.57,1.57-1.57,1.57.7,1.57,1.57Z"/>
      <path d="m220.88,313.3c0,.87-.7,1.57-1.57,1.57s-1.57-.7-1.57-1.57.7-1.57,1.57-1.57,1.57.7,1.57,1.57Z"/>
      <path d="m252.21,313.3c0,.87-.7,1.57-1.57,1.57s-1.57-.7-1.57-1.57.7-1.57,1.57-1.57,1.57.7,1.57,1.57Z"/>
      <path d="m283.54,313.3c0,.87-.7,1.57-1.57,1.57s-1.57-.7-1.57-1.57.7-1.57,1.57-1.57,1.57.7,1.57,1.57Z"/>
      <path d="m314.87,313.3c0,.87-.7,1.57-1.57,1.57s-1.57-.7-1.57-1.57.7-1.57,1.57-1.57,1.57.7,1.57,1.57Z"/>
      <path d="m346.2,313.3c0,.87-.7,1.57-1.57,1.57s-1.57-.7-1.57-1.57.7-1.57,1.57-1.57,1.57.7,1.57,1.57Z"/>
      <path d="m377.53,313.3c0,.87-.7,1.57-1.57,1.57s-1.57-.7-1.57-1.57.7-1.57,1.57-1.57,1.57.7,1.57,1.57Z"/>
      <path d="m408.86,313.3c0,.87-.7,1.57-1.57,1.57s-1.57-.7-1.57-1.57.7-1.57,1.57-1.57,1.57.7,1.57,1.57Z"/>
      <path d="m440.19,313.3c0,.87-.7,1.57-1.57,1.57s-1.57-.7-1.57-1.57.7-1.57,1.57-1.57,1.57.7,1.57,1.57Z"/>
      <path d="m471.52,313.3c0,.87-.7,1.57-1.57,1.57s-1.57-.7-1.57-1.57.7-1.57,1.57-1.57,1.57.7,1.57,1.57Z"/>
      <path d="m502.85,313.3c0,.87-.7,1.57-1.57,1.57s-1.57-.7-1.57-1.57.7-1.57,1.57-1.57,1.57.7,1.57,1.57Z"/>
      <path d="m534.18,313.3c0,.87-.7,1.57-1.57,1.57s-1.57-.7-1.57-1.57.7-1.57,1.57-1.57,1.57.7,1.57,1.57Z"/>
      <path d="m565.51,313.3c0,.87-.7,1.57-1.57,1.57s-1.57-.7-1.57-1.57.7-1.57,1.57-1.57,1.57.7,1.57,1.57Z"/>
    </g>
    <g>
      <path d="m32.9,344.63c0,.87-.7,1.57-1.57,1.57s-1.57-.7-1.57-1.57.7-1.57,1.57-1.57,1.57.7,1.57,1.57Z"/>
      <path d="m64.23,344.63c0,.87-.7,1.57-1.57,1.57s-1.57-.7-1.57-1.57.7-1.57,1.57-1.57,1.57.7,1.57,1.57Z"/>
      <path d="m95.56,344.63c0,.87-.7,1.57-1.57,1.57s-1.57-.7-1.57-1.57.7-1.57,1.57-1.57,1.57.7,1.57,1.57Z"/>
      <path d="m126.89,344.63c0,.87-.7,1.57-1.57,1.57s-1.57-.7-1.57-1.57.7-1.57,1.57-1.57,1.57.7,1.57,1.57Z"/>
      <path d="m158.22,344.63c0,.87-.7,1.57-1.57,1.57s-1.57-.7-1.57-1.57.7-1.57,1.57-1.57,1.57.7,1.57,1.57Z"/>
      <path d="m189.55,344.63c0,.87-.7,1.57-1.57,1.57s-1.57-.7-1.57-1.57.7-1.57,1.57-1.57,1.57.7,1.57,1.57Z"/>
      <path d="m220.88,344.63c0,.87-.7,1.57-1.57,1.57s-1.57-.7-1.57-1.57.7-1.57,1.57-1.57,1.57.7,1.57,1.57Z"/>
      <path d="m252.21,344.63c0,.87-.7,1.57-1.57,1.57s-1.57-.7-1.57-1.57.7-1.57,1.57-1.57,1.57.7,1.57,1.57Z"/>
      <path d="m283.54,344.63c0,.87-.7,1.57-1.57,1.57s-1.57-.7-1.57-1.57.7-1.57,1.57-1.57,1.57.7,1.57,1.57Z"/>
      <path d="m314.87,344.63c0,.87-.7,1.57-1.57,1.57s-1.57-.7-1.57-1.57.7-1.57,1.57-1.57,1.57.7,1.57,1.57Z"/>
      <path d="m346.2,344.63c0,.87-.7,1.57-1.57,1.57s-1.57-.7-1.57-1.57.7-1.57,1.57-1.57,1.57.7,1.57,1.57Z"/>
      <path d="m377.53,344.63c0,.87-.7,1.57-1.57,1.57s-1.57-.7-1.57-1.57.7-1.57,1.57-1.57,1.57.7,1.57,1.57Z"/>
      <path d="m408.86,344.63c0,.87-.7,1.57-1.57,1.57s-1.57-.7-1.57-1.57.7-1.57,1.57-1.57,1.57.7,1.57,1.57Z"/>
      <path d="m440.19,344.63c0,.87-.7,1.57-1.57,1.57s-1.57-.7-1.57-1.57.7-1.57,1.57-1.57,1.57.7,1.57,1.57Z"/>
      <path d="m471.52,344.63c0,.87-.7,1.57-1.57,1.57s-1.57-.7-1.57-1.57.7-1.57,1.57-1.57,1.57.7,1.57,1.57Z"/>
      <path d="m502.85,344.63c0,.87-.7,1.57-1.57,1.57s-1.57-.7-1.57-1.57.7-1.57,1.57-1.57,1.57.7,1.57,1.57Z"/>
      <path d="m534.18,344.63c0,.87-.7,1.57-1.57,1.57s-1.57-.7-1.57-1.57.7-1.57,1.57-1.57,1.57.7,1.57,1.57Z"/>
      <path d="m565.51,344.63c0,.87-.7,1.57-1.57,1.57s-1.57-.7-1.57-1.57.7-1.57,1.57-1.57,1.57.7,1.57,1.57Z"/>
    </g>
    <g>
      <circle cx="31.33" cy="375.96" r="1.57"/>
      <circle cx="62.66" cy="375.96" r="1.57"/>
      <path d="m95.56,375.96c0,.87-.7,1.57-1.57,1.57s-1.57-.7-1.57-1.57.7-1.57,1.57-1.57,1.57.7,1.57,1.57Z"/>
      <path d="m126.89,375.96c0,.87-.7,1.57-1.57,1.57s-1.57-.7-1.57-1.57.7-1.57,1.57-1.57,1.57.7,1.57,1.57Z"/>
      <path d="m158.22,375.96c0,.87-.7,1.57-1.57,1.57s-1.57-.7-1.57-1.57.7-1.57,1.57-1.57,1.57.7,1.57,1.57Z"/>
      <path d="m189.55,375.96c0,.87-.7,1.57-1.57,1.57s-1.57-.7-1.57-1.57.7-1.57,1.57-1.57,1.57.7,1.57,1.57Z"/>
      <path d="m220.88,375.96c0,.87-.7,1.57-1.57,1.57s-1.57-.7-1.57-1.57.7-1.57,1.57-1.57,1.57.7,1.57,1.57Z"/>
      <circle cx="250.64" cy="375.96" r="1.57"/>
      <circle cx="281.97" cy="375.96" r="1.57"/>
      <circle cx="313.3" cy="375.96" r="1.57"/>
      <circle cx="344.63" cy="375.96" r="1.57"/>
      <circle cx="375.96" cy="375.96" r="1.57"/>
      <circle cx="407.29" cy="375.96" r="1.57"/>
      <circle cx="438.62" cy="375.96" r="1.57"/>
      <circle cx="469.95" cy="375.96" r="1.57"/>
      <circle cx="501.28" cy="375.96" r="1.57"/>
      <circle cx="532.62" cy="375.96" r="1.57"/>
      <circle cx="563.95" cy="375.96" r="1.57"/>
    </g>
    <g>
      <circle cx="31.33" cy="407.29" r="1.57"/>
      <circle cx="62.66" cy="407.29" r="1.57"/>
      <path d="m95.56,407.29c0,.87-.7,1.57-1.57,1.57s-1.57-.7-1.57-1.57.7-1.57,1.57-1.57,1.57.7,1.57,1.57Z"/>
      <path d="m126.89,407.29c0,.87-.7,1.57-1.57,1.57s-1.57-.7-1.57-1.57.7-1.57,1.57-1.57,1.57.7,1.57,1.57Z"/>
      <path d="m158.22,407.29c0,.87-.7,1.57-1.57,1.57s-1.57-.7-1.57-1.57.7-1.57,1.57-1.57,1.57.7,1.57,1.57Z"/>
      <path d="m189.55,407.29c0,.87-.7,1.57-1.57,1.57s-1.57-.7-1.57-1.57.7-1.57,1.57-1.57,1.57.7,1.57,1.57Z"/>
      <path d="m220.88,407.29c0,.87-.7,1.57-1.57,1.57s-1.57-.7-1.57-1.57.7-1.57,1.57-1.57,1.57.7,1.57,1.57Z"/>
      <circle cx="250.64" cy="407.29" r="1.57"/>
      <circle cx="281.97" cy="407.29" r="1.57"/>
      <circle cx="313.3" cy="407.29" r="1.57"/>
      <circle cx="344.63" cy="407.29" r="1.57"/>
      <circle cx="375.96" cy="407.29" r="1.57"/>
      <circle cx="407.29" cy="407.29" r="1.57"/>
      <circle cx="438.62" cy="407.29" r="1.57"/>
      <circle cx="469.95" cy="407.29" r="1.57"/>
      <circle cx="501.28" cy="407.29" r="1.57"/>
      <circle cx="532.62" cy="407.29" r="1.57"/>
      <circle cx="563.95" cy="407.29" r="1.57"/>
    </g>
    <g>
      <circle cx="31.33" cy="438.62" r="1.57"/>
      <circle cx="62.66" cy="438.62" r="1.57"/>
      <path d="m95.56,438.62c0,.87-.7,1.57-1.57,1.57s-1.57-.7-1.57-1.57.7-1.57,1.57-1.57,1.57.7,1.57,1.57Z"/>
      <path d="m126.89,438.62c0,.87-.7,1.57-1.57,1.57s-1.57-.7-1.57-1.57.7-1.57,1.57-1.57,1.57.7,1.57,1.57Z"/>
      <path d="m158.22,438.62c0,.87-.7,1.57-1.57,1.57s-1.57-.7-1.57-1.57.7-1.57,1.57-1.57,1.57.7,1.57,1.57Z"/>
      <path d="m189.55,438.62c0,.87-.7,1.57-1.57,1.57s-1.57-.7-1.57-1.57.7-1.57,1.57-1.57,1.57.7,1.57,1.57Z"/>
      <path d="m220.88,438.62c0,.87-.7,1.57-1.57,1.57s-1.57-.7-1.57-1.57.7-1.57,1.57-1.57,1.57.7,1.57,1.57Z"/>
      <circle cx="250.64" cy="438.62" r="1.57"/>
      <circle cx="281.97" cy="438.62" r="1.57"/>
      <circle cx="313.3" cy="438.62" r="1.57"/>
      <circle cx="344.63" cy="438.62" r="1.57"/>
      <circle cx="375.96" cy="438.62" r="1.57"/>
      <circle cx="407.29" cy="438.62" r="1.57"/>
      <circle cx="438.62" cy="438.62" r="1.57"/>
      <circle cx="469.95" cy="438.62" r="1.57"/>
      <circle cx="501.28" cy="438.62" r="1.57"/>
      <circle cx="532.62" cy="438.62" r="1.57"/>
      <circle cx="563.95" cy="438.62" r="1.57"/>
    </g>
    <g>
      <circle cx="31.33" cy="469.95" r="1.57"/>
      <circle cx="62.66" cy="469.95" r="1.57"/>
      <path d="m95.56,469.95c0,.87-.7,1.57-1.57,1.57s-1.57-.7-1.57-1.57.7-1.57,1.57-1.57,1.57.7,1.57,1.57Z"/>
      <path d="m126.89,469.95c0,.87-.7,1.57-1.57,1.57s-1.57-.7-1.57-1.57.7-1.57,1.57-1.57,1.57.7,1.57,1.57Z"/>
      <path d="m158.22,469.95c0,.87-.7,1.57-1.57,1.57s-1.57-.7-1.57-1.57.7-1.57,1.57-1.57,1.57.7,1.57,1.57Z"/>
      <path d="m189.55,469.95c0,.87-.7,1.57-1.57,1.57s-1.57-.7-1.57-1.57.7-1.57,1.57-1.57,1.57.7,1.57,1.57Z"/>
      <path d="m220.88,469.95c0,.87-.7,1.57-1.57,1.57s-1.57-.7-1.57-1.57.7-1.57,1.57-1.57,1.57.7,1.57,1.57Z"/>
      <circle cx="250.64" cy="469.95" r="1.57"/>
      <circle cx="281.97" cy="469.95" r="1.57"/>
      <circle cx="313.3" cy="469.95" r="1.57"/>
      <circle cx="344.63" cy="469.95" r="1.57"/>
      <circle cx="375.96" cy="469.95" r="1.57"/>
      <circle cx="407.29" cy="469.95" r="1.57"/>
      <circle cx="438.62" cy="469.95" r="1.57"/>
      <circle cx="469.95" cy="469.95" r="1.57"/>
      <circle cx="501.28" cy="469.95" r="1.57"/>
      <circle cx="532.62" cy="469.95" r="1.57"/>
      <circle cx="563.95" cy="469.95" r="1.57"/>
    </g>
    <g>
      <circle cx="31.33" cy="501.28" r="1.57"/>
      <circle cx="62.66" cy="501.28" r="1.57"/>
      <path d="m95.56,501.28c0,.87-.7,1.57-1.57,1.57s-1.57-.7-1.57-1.57.7-1.57,1.57-1.57,1.57.7,1.57,1.57Z"/>
      <path d="m126.89,501.28c0,.87-.7,1.57-1.57,1.57s-1.57-.7-1.57-1.57.7-1.57,1.57-1.57,1.57.7,1.57,1.57Z"/>
      <path d="m158.22,501.28c0,.87-.7,1.57-1.57,1.57s-1.57-.7-1.57-1.57.7-1.57,1.57-1.57,1.57.7,1.57,1.57Z"/>
      <path d="m189.55,501.28c0,.87-.7,1.57-1.57,1.57s-1.57-.7-1.57-1.57.7-1.57,1.57-1.57,1.57.7,1.57,1.57Z"/>
      <path d="m220.88,501.28c0,.87-.7,1.57-1.57,1.57s-1.57-.7-1.57-1.57.7-1.57,1.57-1.57,1.57.7,1.57,1.57Z"/>
      <circle cx="250.64" cy="501.28" r="1.57"/>
      <circle cx="281.97" cy="501.28" r="1.57"/>
      <circle cx="313.3" cy="501.28" r="1.57"/>
      <circle cx="344.63" cy="501.28" r="1.57"/>
      <circle cx="375.96" cy="501.28" r="1.57"/>
      <circle cx="407.29" cy="501.28" r="1.57"/>
      <circle cx="438.62" cy="501.28" r="1.57"/>
      <circle cx="469.95" cy="501.28" r="1.57"/>
      <circle cx="501.28" cy="501.28" r="1.57"/>
      <circle cx="532.62" cy="501.28" r="1.57"/>
      <circle cx="563.95" cy="501.28" r="1.57"/>
    </g>
    <g>
      <circle cx="31.33" cy="532.61" r="1.57"/>
      <circle cx="62.66" cy="532.61" r="1.57"/>
      <path d="m95.56,532.61c0,.87-.7,1.57-1.57,1.57s-1.57-.7-1.57-1.57.7-1.57,1.57-1.57,1.57.7,1.57,1.57Z"/>
      <path d="m126.89,532.61c0,.87-.7,1.57-1.57,1.57s-1.57-.7-1.57-1.57.7-1.57,1.57-1.57,1.57.7,1.57,1.57Z"/>
      <path d="m158.22,532.61c0,.87-.7,1.57-1.57,1.57s-1.57-.7-1.57-1.57.7-1.57,1.57-1.57,1.57.7,1.57,1.57Z"/>
      <path d="m189.55,532.61c0,.87-.7,1.57-1.57,1.57s-1.57-.7-1.57-1.57.7-1.57,1.57-1.57,1.57.7,1.57,1.57Z"/>
      <path d="m220.88,532.61c0,.87-.7,1.57-1.57,1.57s-1.57-.7-1.57-1.57.7-1.57,1.57-1.57,1.57.7,1.57,1.57Z"/>
      <circle cx="250.64" cy="532.61" r="1.57"/>
      <circle cx="281.97" cy="532.61" r="1.57"/>
      <circle cx="313.3" cy="532.61" r="1.57"/>
      <circle cx="344.63" cy="532.61" r="1.57"/>
      <circle cx="375.96" cy="532.61" r="1.57"/>
      <circle cx="407.29" cy="532.61" r="1.57"/>
      <circle cx="438.62" cy="532.61" r="1.57"/>
      <circle cx="469.95" cy="532.61" r="1.57"/>
      <circle cx="501.28" cy="532.61" r="1.57"/>
      <circle cx="532.62" cy="532.61" r="1.57"/>
      <circle cx="563.95" cy="532.61" r="1.57"/>
    </g>
    <g>
      <circle cx="31.33" cy="563.95" r="1.57"/>
      <circle cx="62.66" cy="563.95" r="1.57"/>
      <path d="m95.56,563.95c0,.87-.7,1.57-1.57,1.57s-1.57-.7-1.57-1.57.7-1.57,1.57-1.57,1.57.7,1.57,1.57Z"/>
      <path d="m126.89,563.95c0,.87-.7,1.57-1.57,1.57s-1.57-.7-1.57-1.57.7-1.57,1.57-1.57,1.57.7,1.57,1.57Z"/>
      <path d="m158.22,563.95c0,.87-.7,1.57-1.57,1.57s-1.57-.7-1.57-1.57.7-1.57,1.57-1.57,1.57.7,1.57,1.57Z"/>
      <path d="m189.55,563.95c0,.87-.7,1.57-1.57,1.57s-1.57-.7-1.57-1.57.7-1.57,1.57-1.57,1.57.7,1.57,1.57Z"/>
      <path d="m220.88,563.95c0,.87-.7,1.57-1.57,1.57s-1.57-.7-1.57-1.57.7-1.57,1.57-1.57,1.57.7,1.57,1.57Z"/>
      <circle cx="250.64" cy="563.95" r="1.57"/>
      <circle cx="281.97" cy="563.95" r="1.57"/>
      <circle cx="313.3" cy="563.95" r="1.57"/>
      <circle cx="344.63" cy="563.95" r="1.57"/>
      <circle cx="375.96" cy="563.95" r="1.57"/>
      <circle cx="407.29" cy="563.95" r="1.57"/>
      <circle cx="438.62" cy="563.95" r="1.57"/>
      <circle cx="469.95" cy="563.95" r="1.57"/>
      <circle cx="501.28" cy="563.95" r="1.57"/>
      <circle cx="532.62" cy="563.95" r="1.57"/>
      <circle cx="563.95" cy="563.95" r="1.57"/>
    </g>
  </g>
  <g>
    <path d="m595.28,283.53v-3.12c-.84.03-1.52.71-1.52,1.56s.67,1.53,1.52,1.56Z"/>
    <path d="m595.28,252.2v-3.12c-.84.03-1.52.71-1.52,1.56s.67,1.53,1.52,1.56Z"/>
    <path d="m595.28,158.21v-3.12c-.84.03-1.52.71-1.52,1.56s.67,1.53,1.52,1.56Z"/>
    <path d="m595.28,220.87v-3.12c-.84.03-1.52.71-1.52,1.56s.67,1.53,1.52,1.56Z"/>
    <path d="m595.28,189.54v-3.12c-.84.03-1.52.71-1.52,1.56s.67,1.53,1.52,1.56Z"/>
    <path d="m595.28,32.89v-3.12c-.84.03-1.52.71-1.52,1.56s.67,1.53,1.52,1.56Z"/>
    <path d="m595.28,95.55v-3.12c-.84.03-1.52.71-1.52,1.56s.67,1.53,1.52,1.56Z"/>
    <path d="m595.28,126.88v-3.12c-.84.03-1.52.71-1.52,1.56s.67,1.53,1.52,1.56Z"/>
    <path d="m595.28,377.52v-3.12c-.84.03-1.52.71-1.52,1.56s.67,1.53,1.52,1.56Z"/>
    <path d="m595.28,471.52v-3.12c-.84.03-1.52.71-1.52,1.56s.67,1.53,1.52,1.56Z"/>
    <path d="m595.28,502.85v-3.12c-.84.03-1.52.71-1.52,1.56s.67,1.53,1.52,1.56Z"/>
    <path d="m595.28,534.18v-3.12c-.84.03-1.52.71-1.52,1.56s.67,1.53,1.52,1.56Z"/>
    <path d="m595.28,565.51v-3.12c-.84.03-1.52.71-1.52,1.56s.67,1.53,1.52,1.56Z"/>
    <path d="m595.28,64.22v-3.12c-.84.03-1.52.71-1.52,1.56s.67,1.53,1.52,1.56Z"/>
    <path d="m595.28,440.19v-3.12c-.84.03-1.52.71-1.52,1.56s.67,1.53,1.52,1.56Z"/>
    <path d="m595.28,346.19v-3.12c-.84.03-1.52.71-1.52,1.56s.67,1.53,1.52,1.56Z"/>
    <path d="m595.28,314.86v-3.12c-.84.03-1.52.71-1.52,1.56s.67,1.53,1.52,1.56Z"/>
    <path d="m595.28,408.86v-3.12c-.84.03-1.52.71-1.52,1.56s.67,1.53,1.52,1.56Z"/>
    <path d="m0,92.43v3.13c.85-.01,1.54-.71,1.54-1.56S.85,92.44,0,92.43Z"/>
    <path d="m0,405.73v3.13c.85-.01,1.54-.71,1.54-1.56s-.69-1.55-1.54-1.56Z"/>
    <path d="m0,374.4v3.13c.85-.01,1.54-.71,1.54-1.56s-.69-1.55-1.54-1.56Z"/>
    <path d="m0,437.06v3.13c.85-.01,1.54-.71,1.54-1.56s-.69-1.55-1.54-1.56Z"/>
    <path d="m0,311.74v3.13c.85-.01,1.54-.71,1.54-1.56s-.69-1.55-1.54-1.56Z"/>
    <path d="m0,343.07v3.13c.85-.01,1.54-.71,1.54-1.56s-.69-1.55-1.54-1.56Z"/>
    <path d="m1.54,563.95c0-.86-.69-1.55-1.54-1.56v3.13c.85-.01,1.54-.71,1.54-1.56Z"/>
    <path d="m0,531.05v3.13c.85-.01,1.54-.71,1.54-1.56s-.69-1.55-1.54-1.56Z"/>
    <path d="m0,468.39v3.13c.85-.01,1.54-.71,1.54-1.56s-.69-1.55-1.54-1.56Z"/>
    <path d="m0,499.72v3.13c.85-.01,1.54-.71,1.54-1.56s-.69-1.55-1.54-1.56Z"/>
    <path d="m0,217.75v3.13c.85-.01,1.54-.71,1.54-1.56s-.69-1.55-1.54-1.56Z"/>
    <path d="m0,61.1v3.13c.85-.01,1.54-.71,1.54-1.56S.85,61.11,0,61.1Z"/>
    <path d="m0,123.76v3.13c.85-.01,1.54-.71,1.54-1.56S.85,123.77,0,123.76Z"/>
    <path d="m593.76.2c0,.85.67,1.53,1.52,1.56V0h-1.5c0,.07-.02.13-.02.2Z"/>
    <path d="m0,280.41v3.13c.85-.01,1.54-.71,1.54-1.56s-.69-1.55-1.54-1.56Z"/>
    <path d="m0,29.77v3.13c.85-.01,1.54-.71,1.54-1.56S.85,29.78,0,29.77Z"/>
    <path d="m0,593.76v1.51h1.54c-.03-.83-.7-1.5-1.54-1.51Z"/>
    <path d="m0,249.08v3.13c.85-.01,1.54-.71,1.54-1.56s-.69-1.55-1.54-1.56Z"/>
    <path d="m0,186.42v3.13c.85-.01,1.54-.71,1.54-1.56s-.69-1.55-1.54-1.56Z"/>
    <path d="m0,155.09v3.13c.85-.01,1.54-.71,1.54-1.56s-.69-1.55-1.54-1.56Z"/>
    <path d="m250.64,1.54c.86,0,1.55-.69,1.56-1.54h-3.13c.01.85.71,1.54,1.56,1.54Z"/>
    <path d="m407.29,1.54c.86,0,1.55-.69,1.56-1.54h-3.13c.01.85.71,1.54,1.56,1.54Z"/>
    <path d="m438.62,593.76c-.85,0-1.53.68-1.56,1.52h3.12c-.03-.84-.71-1.52-1.56-1.52Z"/>
    <path d="m438.62,1.54c.86,0,1.55-.69,1.56-1.54h-3.13c.01.85.71,1.54,1.56,1.54Z"/>
    <path d="m469.95,593.76c-.85,0-1.53.68-1.56,1.52h3.12c-.03-.84-.71-1.52-1.56-1.52Z"/>
    <path d="m375.96,593.76c-.85,0-1.53.68-1.56,1.52h3.12c-.03-.84-.71-1.52-1.56-1.52Z"/>
    <path d="m407.29,593.76c-.85,0-1.54.68-1.56,1.52h3.12c-.03-.84-.71-1.52-1.56-1.52Z"/>
    <path d="m344.63,1.54c.86,0,1.55-.69,1.56-1.54h-3.13c.01.85.71,1.54,1.56,1.54Z"/>
    <path d="m469.95,1.54c.86,0,1.55-.69,1.56-1.54h-3.13c.01.85.71,1.54,1.56,1.54Z"/>
    <path d="m375.96,1.54c.86,0,1.55-.69,1.56-1.54h-3.13c.01.85.71,1.54,1.56,1.54Z"/>
    <path d="m344.63,593.76c-.85,0-1.53.68-1.56,1.52h3.12c-.03-.84-.71-1.52-1.56-1.52Z"/>
    <path d="m563.95,593.76c-.85,0-1.53.68-1.56,1.52h3.12c-.03-.84-.71-1.52-1.56-1.52Z"/>
    <path d="m563.95,1.54c.86,0,1.55-.69,1.56-1.54h-3.13c.01.85.71,1.54,1.56,1.54Z"/>
    <path d="m595.28,593.76c-.82.03-1.49.69-1.51,1.51h1.51v-1.51Z"/>
    <path d="m0,1.57H0c.87,0,1.57-.7,1.57-1.57H0v1.57Z"/>
    <path d="m501.28,1.54c.86,0,1.55-.69,1.56-1.54h-3.13c.01.85.71,1.54,1.56,1.54Z"/>
    <path d="m501.28,593.76c-.85,0-1.53.68-1.56,1.52h3.12c-.03-.84-.71-1.52-1.56-1.52Z"/>
    <path d="m532.61,1.54c.86,0,1.55-.69,1.56-1.54h-3.13c.01.85.71,1.54,1.56,1.54Z"/>
    <path d="m532.61,593.76c-.85,0-1.53.68-1.56,1.52h3.12c-.03-.84-.71-1.52-1.56-1.52Z"/>
    <path d="m125.32,593.76c-.85,0-1.54.68-1.56,1.52h3.12c-.03-.84-.71-1.52-1.56-1.52Z"/>
    <path d="m32.89,595.28c-.03-.84-.71-1.52-1.56-1.52s-1.53.68-1.56,1.52h3.12Z"/>
    <path d="m313.3,1.54c.86,0,1.55-.69,1.56-1.54h-3.13c.01.85.71,1.54,1.56,1.54Z"/>
    <path d="m125.32,1.54c.86,0,1.55-.69,1.56-1.54h-3.13c.01.85.71,1.54,1.56,1.54Z"/>
    <path d="m156.65,593.76c-.85,0-1.53.68-1.56,1.52h3.12c-.03-.84-.71-1.52-1.56-1.52Z"/>
    <path d="m93.99,593.76c-.85,0-1.53.68-1.56,1.52h3.12c-.03-.84-.71-1.52-1.56-1.52Z"/>
    <path d="m32.89,0h-3.13c.01.85.71,1.54,1.56,1.54s1.55-.69,1.56-1.54Z"/>
    <path d="m62.66,593.76c-.85,0-1.53.68-1.56,1.52h3.12c-.03-.84-.71-1.52-1.56-1.52Z"/>
    <path d="m62.66,1.54c.86,0,1.55-.69,1.56-1.54h-3.13c.01.85.71,1.54,1.56,1.54Z"/>
    <path d="m156.65,1.54c.86,0,1.55-.69,1.56-1.54h-3.13c.01.85.71,1.54,1.56,1.54Z"/>
    <path d="m93.99,1.54c.86,0,1.55-.69,1.56-1.54h-3.13c.01.85.71,1.54,1.56,1.54Z"/>
    <path d="m250.64,593.76c-.85,0-1.53.68-1.56,1.52h3.12c-.03-.84-.71-1.52-1.56-1.52Z"/>
    <path d="m281.97,593.76c-.85,0-1.53.68-1.56,1.52h3.12c-.03-.84-.71-1.52-1.56-1.52Z"/>
    <path d="m281.97,1.54c.86,0,1.55-.69,1.56-1.54h-3.13c.01.85.71,1.54,1.56,1.54Z"/>
    <path d="m313.3,593.76c-.85,0-1.53.68-1.56,1.52h3.12c-.03-.84-.71-1.52-1.56-1.52Z"/>
    <path d="m219.31,1.54c.86,0,1.55-.69,1.56-1.54h-3.13c.01.85.71,1.54,1.56,1.54Z"/>
    <path d="m187.98,1.54c.86,0,1.55-.69,1.56-1.54h-3.13c.01.85.71,1.54,1.56,1.54Z"/>
    <path d="m219.31,593.76c-.85,0-1.53.68-1.56,1.52h3.12c-.03-.84-.71-1.52-1.56-1.52Z"/>
    <path d="m187.98,593.76c-.85,0-1.53.68-1.56,1.52h3.12c-.03-.84-.71-1.52-1.56-1.52Z"/>
  </g>
</svg>